<svg width="50" height="50" xmlns="http://www.w3.org/2000/svg"><g><rect y="1" x="1" stroke-width="2" id="svg_1" height="48" width="48" stroke="#000" fill="#fff"/><path opacity="0.5" d="m4.16667,4.16667c0,0 -0.02411,0.36272 0,1.08696c0.04532,1.36096 0.44794,3.61643 0.63406,6.52174c0.16803,2.623 0.09058,5.07246 0.09058,7.42754c0,1.72102 -0.00265,3.26071 -0.09058,4.71015c-0.0934,1.53969 -0.27174,2.98913 -0.27174,4.25725c0,0.99638 -0.04508,1.81284 0,2.62681c0.04536,0.81898 0.22636,1.53563 0.27174,2.26449c0.0394,0.63283 0,1.08696 0,1.63043c0,0.4529 0,0.9058 0,1.3587c0,0.4529 0,0.9058 0,1.3587c0,0.4529 0,1.08696 0,1.53986c0,0.4529 -0.09058,0.9058 -0.09058,1.44928c0,0.4529 0,0.9058 0,1.3587c0,0.4529 -0.05804,0.81989 0,1.17754c0.04588,0.28274 0.03057,0.57156 0.18116,0.81522c0.06735,0.10897 0.18116,0.36232 0.36232,0.54348c0.09058,0.09058 0.25085,0.20862 0.36232,0.27174c0.32499,0.18401 0.63406,0.18116 0.81522,0.18116c0.27174,0 0.37917,0.02785 0.54348,-0.09058c0.10392,-0.0749 0.19585,-0.53738 0.4529,-1.17754c0.28838,-0.71818 0.50813,-1.71042 0.72464,-2.98913c0.24382,-1.44006 0.49742,-2.98233 0.72464,-4.61957c0.22551,-1.62489 0.55519,-3.53148 0.72464,-5.3442c0.19462,-2.08212 0.5392,-4.34822 0.72464,-6.34058c0.17708,-1.90256 0.39443,-3.43878 0.54348,-5.07246c0.11551,-1.26609 0.09058,-2.35507 0.09058,-3.62319c0,-0.99638 0.12921,-1.89454 0.27174,-2.71739c0.12464,-0.71956 0.08321,-1.26921 0.18116,-1.90217c0.08426,-0.54449 0.2263,-1.17192 0.27174,-1.72101c0.04483,-0.54163 0.09058,-0.99638 0.18116,-1.44928c0.09058,-0.4529 0.14013,-0.8254 0.27174,-1.26812c0.13899,-0.46756 0.34365,-0.82314 0.54348,-1.26812c0.16595,-0.36953 0.24397,-0.67562 0.36232,-0.72464c0.08368,-0.03466 0.19739,-0.09251 0.4529,0c0.6652,0.24083 1.32393,1.14092 1.90217,2.08333c0.80531,1.31249 1.34935,2.60771 1.63043,3.98551c0.25606,1.25514 0.29719,2.3608 0.18116,3.53261c-0.09102,0.91924 -0.2347,1.81566 -0.36232,2.80797c-0.14056,1.09295 -0.41276,2.45124 -0.63406,3.89493c-0.30689,2.00204 -0.63544,3.79441 -0.81522,5.88768c-0.18618,2.16782 -0.18116,3.98551 -0.18116,5.52536c0,1.44928 -0.06421,2.62909 0,3.53261c0.0454,0.63889 0.27174,1.26812 0.27174,1.90218c0,0.54348 -0.04483,1.08881 0,1.63044c0.04544,0.5491 0.0941,1.09398 0.18116,1.63043c0.09176,0.56548 0.21243,0.92183 0.36232,1.3587c0.13147,0.38316 0.26427,0.72977 0.4529,0.99638c0.26158,0.36972 0.56265,0.69875 0.81522,0.9058c0.29719,0.24364 0.43694,0.40636 0.63406,0.4529c0.17631,0.04162 0.36474,0.02081 0.4529,0c0.19712,-0.04654 0.59874,-0.42437 0.9058,-1.08696c0.44578,-0.96194 0.87731,-2.61241 1.26812,-4.4384c0.53919,-2.5193 0.77035,-5.25736 0.99638,-7.69928c0.2268,-2.45023 0.63406,-4.8913 0.81522,-6.97464c0.18116,-2.08333 0.30627,-3.98161 0.4529,-5.43478c0.11857,-1.17505 0.22641,-2.35225 0.27174,-3.44203c0.04141,-0.99551 -0.06421,-1.90445 0,-2.80797c0.0454,-0.63888 0.12761,-1.18018 0.18116,-1.72101c0.04551,-0.45962 0.09058,-0.9058 0.18116,-1.3587c0.09058,-0.4529 0.16732,-0.81896 0.27174,-1.17754c0.08009,-0.27501 0.27174,-0.54348 0.4529,-0.81522c0.18116,-0.27174 0.36232,-0.63406 0.54348,-0.81522c0.18116,-0.18116 0.36232,-0.27174 0.4529,-0.27174c0.18116,0 0.64932,0.07568 1.26812,0.72464c0.92924,0.97455 1.94381,2.48037 2.80797,4.71014c0.85919,2.21694 1.22281,4.43671 1.26812,6.25c0.0362,1.44882 0,2.80797 0,4.25725c0,1.26812 -0.32421,2.71142 -0.4529,4.07609c-0.15331,1.62574 -0.27174,3.98551 -0.27174,5.52536c0,1.44928 -0.03644,2.80932 -0.09058,3.89493c-0.04535,0.90919 -0.12139,1.72348 -0.18116,2.44565c-0.04544,0.5491 -0.27056,1.06496 -0.36232,1.63044c-0.08706,0.53646 -0.18116,0.99638 -0.27174,1.53986c-0.09058,0.54348 -0.09058,1.08696 -0.09058,1.53986c0,0.4529 0.08311,0.82035 0.27174,1.08696c0.26158,0.36972 0.51802,0.66216 0.81522,0.9058c0.25257,0.20705 0.54348,0.27174 0.72464,0.27174c0.36232,0 0.83595,-0.06609 1.26812,-0.4529c0.47725,-0.42716 1.12215,-1.25701 1.44927,-2.35507c0.50809,-1.70554 0.77862,-3.70837 0.99638,-6.15942c0.24101,-2.71274 0.27802,-5.61767 0.18116,-8.33333c-0.09064,-2.54108 -0.27174,-4.98188 -0.27174,-6.97464c0,-1.63043 -0.04843,-3.08057 0,-4.43841c0.04532,-1.27054 0.27582,-2.35467 0.36232,-3.26087c0.09507,-0.99596 0.31697,-1.71763 0.36232,-2.62681c0.04061,-0.81421 0.09058,-1.44928 0.18116,-2.08333c0.09058,-0.63406 0.10634,-1.10224 0.27174,-1.72101c0.12597,-0.47124 0.33642,-0.83439 0.54348,-1.08696c0.08121,-0.09906 0.15339,-0.22272 0.27174,-0.27174c0.25106,-0.10399 0.64056,-0.11855 1.08696,0c0.55369,0.14704 0.91864,0.34071 1.53986,0.72464c0.83344,0.51509 1.58619,1.1337 2.35507,1.99275c0.77362,0.86434 1.41069,1.8862 1.72102,2.98913c0.32732,1.16331 0.54348,2.17391 0.54348,3.17029c0,0.99638 0.04414,1.90768 -0.09058,2.80797c-0.1367,0.91356 -0.42705,1.81975 -0.72464,2.71739c-0.33362,1.00635 -0.7373,1.98862 -1.08696,3.07971c-0.37598,1.17324 -0.68446,2.25514 -0.99638,4.07609c-0.21627,1.2626 -0.40757,2.53341 -0.4529,3.62319c-0.04141,0.99552 -0.04503,1.90357 0,2.62681c0.04538,0.72887 0.25418,1.36145 0.36232,1.99276c0.07798,0.45523 0.09058,1.08696 0.18116,1.63043c0.09058,0.54348 0.13565,0.98966 0.18116,1.44928c0.0357,0.36056 0,0.63406 0,0.99638c0,0.27174 0,0.54348 0,0.81522c0,0.18116 0,0.4529 0,0.54348c0,0.18116 0,0.36232 0,0.54348c0,0.18116 0,0.36232 0,0.4529c0,0.09058 0.03466,0.27863 0,0.36232c-0.04902,0.11835 -0.18116,0.27174 -0.18116,0.4529c0,0.09058 0,0.27174 -0.09058,0.27174l0,0.09058l-0.09058,0" id="svg_15" stroke-dasharray="5,5" stroke-width="0.5" stroke="#000" fill="none"/><ellipse ry="5.97826" rx="6.11413" id="svg_16" cy="24.63768" cx="24.50181" stroke-width="0.5" stroke="#000" fill="#000000"/></g></svg>
