<svg width="50" height="50" xmlns="http://www.w3.org/2000/svg"><g><rect y="1" x="1" stroke-width="2" id="svg_1" height="48" width="48" stroke="#000" fill="#fff"/><path stroke-dasharray="5,5" d="m2.71739,2.62681c0.09058,0 0.36232,0 0.99638,0c0.54348,0 1.08696,0 1.44928,0.09058c0.36232,0.09058 0.81746,0.26623 1.26812,0.4529c0.63732,0.26399 1.28737,0.60428 1.72101,0.9058c0.47619,0.33111 0.62843,0.63835 0.9058,0.99638c0.3552,0.4585 0.62331,0.90808 0.72464,1.3587c0.08193,0.36437 0.09058,0.72464 0.09058,0.99638c0,0.27174 -0.22691,0.54792 -0.72464,0.72464c-0.60358,0.2143 -1.44551,0.31696 -2.26449,0.36232c-0.72353,0.04007 -1.3587,0 -1.81159,0c-0.09058,0 -0.13462,0.07461 -0.18116,0.27174c-0.04162,0.17631 0,0.4529 0,0.81522c0,0.4529 0.04835,0.91455 0.18116,1.44928c0.13809,0.55598 0.3391,1.0126 0.72464,1.53986c0.34234,0.46818 0.76934,0.97307 1.53986,1.44928c0.68917,0.42593 1.41627,0.67757 2.26449,0.81522c0.8941,0.14509 1.76341,0.09186 2.62681,-0.36232c0.86712,-0.45613 1.59156,-1.23592 2.08333,-2.08333c0.50831,-0.87591 0.76752,-1.70924 0.99638,-2.62681c0.22354,-0.89628 0.30453,-1.63249 0.36232,-2.44565c0.0454,-0.63888 0.09058,-1.26812 0.09058,-1.63043c0,-0.36232 -0.09058,-0.72464 -0.36232,-0.99638c-0.27174,-0.27174 -0.4419,-0.40702 -0.72464,-0.4529c-0.17882,-0.02902 -0.47307,0.06558 -0.81522,0.36232c-0.48386,0.41965 -0.94027,1.06549 -1.26812,1.63043c-0.50831,0.8759 -0.81485,1.88993 -0.9058,2.89855c-0.10575,1.17278 0,2.62681 0,3.89493c0,1.26812 0.33619,2.72575 0.72464,3.89493c0.42456,1.27788 0.97936,2.45265 1.3587,3.35145c0.34688,0.8219 0.54348,1.63043 0.72464,2.17391c0.18116,0.54348 0.23085,0.88496 0.36232,1.26812c0.14989,0.43687 0.14988,0.99962 0.09058,1.53986c-0.09112,0.83012 -0.85992,1.60713 -1.63043,2.08333c-0.68917,0.42593 -1.81406,0.60324 -2.53623,0.54348c-0.5491,-0.04544 -0.99638,-0.4529 -1.63043,-1.08696c-0.63406,-0.63406 -1.0501,-1.16459 -1.17754,-1.81159c-0.15851,-0.80477 -0.29954,-1.82023 -0.18116,-2.62681c0.13733,-0.93566 0.72724,-1.83416 1.63043,-2.44565c0.67087,-0.4542 1.44505,-0.76984 2.17391,-0.81522c0.81364,-0.05066 1.55547,-0.09982 2.44565,0.09058c0.84031,0.17973 1.55003,0.59303 1.99275,0.72464c0.46757,0.13899 1.03212,0.39104 1.63044,0.18116c0.5473,-0.19198 1.03295,-0.97178 1.44927,-1.63044c0.49827,-0.7883 0.97115,-1.69119 1.3587,-2.62681c0.32885,-0.7939 0.508,-1.72254 0.4529,-2.71739c-0.04536,-0.81898 -0.27877,-1.49982 -0.63406,-1.99275c-0.3745,-0.5196 -0.71629,-0.76958 -1.08696,-0.81522c-0.0899,-0.01107 -0.33289,-0.10947 -0.72464,0.18116c-0.46581,0.34557 -0.97854,1.24266 -1.35869,2.44565c-0.45013,1.42445 -0.67929,2.98976 -0.63406,4.61957c0.04531,1.63232 0.82596,3.61726 1.72101,5.25362c0.64179,1.17334 1.21839,2.24327 1.72101,3.26087c0.39508,0.79986 0.58654,1.43677 0.72464,1.99275c0.13281,0.53473 0.17294,1.10431 0,1.72101c-0.18626,0.66422 -0.81522,1.26812 -1.44928,1.90217c-0.72464,0.72464 -1.19827,1.56035 -1.72101,1.81159c-0.08164,0.03924 -0.4529,0 -1.17754,0c-0.9058,0 -1.75731,0.0294 -2.53623,-0.27174c-0.68114,-0.26333 -1.59576,-0.55497 -2.26449,-1.08696c-0.50124,-0.39874 -1.12375,-1.0673 -1.44928,-1.72101c-0.3075,-0.61751 -0.41483,-1.28233 -0.63406,-1.81159c-0.15502,-0.37425 -0.23172,-0.6811 -0.54348,-0.9058c-0.16431,-0.11843 -0.37611,-0.25049 -0.54348,-0.18116c-0.35504,0.14706 -0.49755,0.65525 -0.72464,1.08696c-0.30409,0.57808 -0.63406,1.17754 -0.9058,1.81159c-0.27174,0.63406 -0.59466,1.43397 -0.81522,2.26449c-0.23709,0.89279 -0.27174,1.72101 -0.27174,2.53623c0,0.63406 -0.043,1.36634 0.09058,1.99275c0.13753,0.64493 0.48737,1.33723 0.81522,1.90218c0.30498,0.52554 0.70029,1.11269 1.17754,1.53985c0.43217,0.38681 0.95711,0.73371 1.53985,0.9058c0.78665,0.23231 1.72101,0.09058 2.62681,0.09058c1.08696,0 1.98595,-0.11637 2.62681,-0.27174c0.89773,-0.21764 1.75775,-0.35176 2.62681,-0.72464c0.67111,-0.28794 1.30911,-0.60411 1.63043,-1.08696c0.36533,-0.54898 0.48162,-1.30386 0.27174,-1.90217c-0.19198,-0.5473 -0.67185,-0.89351 -1.17754,-1.17754c-0.92438,-0.5192 -2.36729,-0.74269 -3.98551,-0.54348c-1.48269,0.18253 -2.94824,1.01746 -3.98551,1.8116c-0.76453,0.58533 -1.44928,1.3587 -1.90217,1.99275c-0.4529,0.63406 -0.82234,1.08135 -1.17754,1.53986c-0.27737,0.35803 -0.60928,0.75123 -0.99638,1.08696c-0.34214,0.29674 -0.60502,0.59521 -0.81522,0.99638c-0.13294,0.25372 -0.34026,0.6406 -0.27174,0.99638c0.09224,0.47898 0.43284,0.92679 0.9058,1.3587c0.5224,0.47706 1.34164,0.90424 2.53623,1.08696c1.16744,0.17857 2.44864,0.18056 3.80435,0.09058c1.36771,-0.09078 2.91059,-0.36179 4.61956,-0.63406c1.28075,-0.20404 2.46531,-0.69314 3.35145,-1.26812c0.92752,-0.60183 1.8116,-1.3587 2.71739,-2.17391c0.9058,-0.81522 1.96093,-1.37268 2.80797,-2.08334c0.78508,-0.65867 1.22267,-1.2625 1.26812,-1.81159c0.02988,-0.36108 0.10399,-0.74532 0,-0.99638c-0.04902,-0.11835 -0.45872,-0.28366 -1.3587,-0.18116c-1.20072,0.13675 -2.1528,0.61779 -2.98913,0.81522c-0.62336,0.14716 -0.8344,0.14632 -0.9058,0.09058c-0.29437,-0.22984 -0.24747,-0.81916 -0.36232,-1.44928c-0.14974,-0.82157 -0.14564,-1.72165 -0.18116,-2.71739c-0.04532,-1.27054 -0.31699,-2.35225 -0.36232,-3.44203c-0.03764,-0.90501 0.00476,-1.68013 0.4529,-2.35507c0.46194,-0.69571 1.08696,-1.08696 1.90217,-1.53985c0.81522,-0.4529 1.81631,-0.87122 2.44565,-1.44928c0.33355,-0.30637 0.50645,-0.81786 0.4529,-1.3587c-0.04551,-0.45962 -0.24758,-1.01746 -0.72464,-1.53986c-0.60467,-0.66214 -1.22361,-1.14517 -1.72101,-1.90217c-0.40102,-0.61032 -0.77738,-1.33419 -1.17754,-2.26449c-0.41892,-0.97393 -0.57805,-1.80592 -0.72464,-2.80797c-0.11872,-0.8116 -0.19019,-1.72712 -0.09058,-2.53623c0.09126,-0.74134 0.18116,-1.99275 0.36232,-2.62681c0.18116,-0.63406 0.38811,-1.08015 0.54348,-1.72101c0.10882,-0.44886 0.19165,-0.81194 0.27174,-1.08696c0.10442,-0.35858 0.09058,-0.63406 0.09058,-1.08696c0,-0.4529 0,-0.9058 -0.09058,-1.17754c-0.09058,-0.27174 -0.09058,-0.36232 -0.27174,-0.4529c-0.18116,-0.09058 -0.53513,-0.31669 -0.9058,-0.36232c-0.4495,-0.05534 -0.9058,0 -1.63044,0c-0.9058,0 -1.99275,0 -2.71739,0c-0.54348,0 -0.81522,0.09058 -0.99638,0.27174c-0.18116,0.18116 -0.40943,0.39943 -0.72464,0.72464c-0.40366,0.41647 -1.06011,0.83961 -1.72101,1.53986c-0.70887,0.75107 -1.19192,1.62164 -1.63043,2.35507c-0.37475,0.62679 -0.89928,1.18303 -1.3587,1.72101c-0.62528,0.73222 -1.17754,1.53986 -1.72101,2.35507c-0.72464,1.08696 -1.39536,2.06005 -1.90217,2.89855c-0.5871,0.97132 -0.87826,2.00068 -1.17754,2.98913c-0.24902,0.82244 -0.50373,1.55258 -0.72464,2.17391c-0.23109,0.64998 -0.61539,1.27604 -0.81522,1.72101c-0.24892,0.5543 -0.36232,0.99638 -0.54348,1.3587c-0.09058,0.18116 -0.09058,0.27174 -0.09058,0.36232c0,0.18116 0.09058,0.36232 0.18116,0.63406l0.09058,0.27174" id="svg_11" stroke-width="0.5" stroke="#000" fill="none"/><path stroke-dasharray="2,2" d="m8.15217,6.06884c0,0.09058 0,0.54348 0,1.17754c0,0.9058 -0.04171,1.99355 0,3.07971c0.04532,1.18014 0.15548,2.19321 0.36232,3.07971c0.17585,0.75367 0.3709,1.23822 0.72464,1.63043c0.30332,0.33632 0.57038,0.59908 0.81522,0.81522c0.30368,0.26809 0.73668,0.41391 1.08696,0.54348c0.18996,0.07027 0.25093,0.093 0.27174,0.18116c0.04653,0.19712 0.07154,0.27884 0.18116,0.54348c0.15502,0.37425 0.39048,0.70889 0.63406,1.17754c0.41142,0.79157 0.59182,1.5486 0.72464,2.08333c0.13809,0.55598 0.27174,1.08696 0.36232,1.53986c0.09058,0.4529 0.04595,0.81742 0.09058,1.26812c0.04551,0.45962 0.09058,0.9058 0.09058,1.3587c0,0.4529 0,0.99638 0,1.3587c0,0.4529 0,0.72464 0,0.99638c0,0.36232 0.04705,0.63757 0.09058,0.9058c0.04588,0.28274 0.16739,0.5507 0.36232,0.9058c0.25416,0.46299 0.54348,0.9058 0.9058,1.3587c0.36232,0.4529 0.75427,0.88241 1.17754,1.44928c0.1954,0.26169 0.27174,0.4529 0.27174,0.63406c0,0.18116 -0.16356,0.40294 -0.54348,0.54348c-0.35027,0.12957 -0.83125,0.12185 -1.26812,0.27174c-0.38316,0.13146 -0.67802,0.34883 -1.08696,0.54348c-0.33722,0.16051 -0.7621,0.32838 -1.08696,0.72464c-0.20705,0.25256 -0.58555,0.58555 -0.9058,0.9058c-0.32025,0.32025 -0.70368,0.68957 -0.9058,1.17754c-0.14292,0.34504 -0.09058,0.63406 -0.09058,0.99638c0,0.27174 0.05342,0.56458 0.27174,0.9058c0.31259,0.48855 0.97245,1.0177 1.53986,1.63044c0.43518,0.46995 0.95753,0.96734 1.3587,1.17754c0.25372,0.13294 0.45085,0.28038 0.81522,0.36232c0.45061,0.10133 1.3506,0.32979 2.44565,0.4529c1.53286,0.17233 2.63734,0.22116 3.44203,0.09058c0.56548,-0.09176 0.75117,-0.29827 0.81522,-0.36232c0.06405,-0.06405 0.11737,0.21745 -0.36232,0.54348c-0.60398,0.4105 -1.22411,0.99615 -2.08333,1.3587c-0.87129,0.36763 -1.79076,0.53578 -2.71739,0.72464c-0.80371,0.16381 -1.63043,0.09058 -2.35507,0.09058c-0.81522,0 -1.64955,-0.24016 -2.26449,-0.63406c-0.65613,-0.42028 -1.19862,-0.88163 -1.72101,-1.3587c-0.47295,-0.43191 -0.8286,-0.81009 -0.99638,-1.26812c-0.19704,-0.53792 -0.395,-1.19702 -0.63406,-1.81159c-0.22028,-0.5663 -0.42533,-1.01701 -0.9058,-1.63044c-0.51494,-0.65745 -0.8808,-1.01655 -1.17754,-1.3587c-0.16786,-0.19355 -0.27174,-0.36232 -0.27174,-0.63406c0,-0.27174 -0.12002,-0.7808 0.18116,-1.26812c0.40407,-0.6538 1.15423,-1.13166 1.63043,-1.90218c0.42593,-0.68917 0.54348,-1.53985 0.54348,-2.35507c0,-0.63406 -0.27174,-1.26812 -0.4529,-1.72101c-0.18116,-0.4529 -0.36232,-0.9058 -0.36232,-1.26812c0,-0.27174 0.43238,-0.76897 1.17754,-1.08696c1.23851,-0.52851 2.80624,-0.91177 4.98188,-1.53985c1.90067,-0.5487 3.30861,-0.69143 4.61957,-1.26812c0.85363,-0.37551 1.22683,-0.80317 1.3587,-1.44928c0.14603,-0.71553 0.17689,-1.46211 0,-2.35507c-0.18376,-0.92765 -0.74533,-1.80154 -1.17754,-2.71739c-0.38074,-0.80678 -0.78556,-1.69461 -0.99638,-2.26449c-0.25915,-0.70054 -0.4981,-1.44505 -0.54348,-2.17391c-0.05066,-0.81364 -0.16805,-1.45403 -0.09058,-2.08333c0.09126,-0.74134 0.43761,-1.28809 0.9058,-1.63043c0.52726,-0.38554 1.16821,-0.59228 1.99275,-0.72464c0.89881,-0.14428 1.5969,-0.14718 1.90217,-0.36232c0.26696,-0.18813 0.22469,-0.54699 0.18116,-0.81522c-0.09176,-0.56548 -0.46649,-0.97677 -0.99638,-1.3587c-0.83782,-0.60387 -1.81159,-1.26812 -2.62681,-1.53986c-0.81522,-0.27174 -1.35869,-0.36232 -1.72101,-0.36232c-0.18116,0 -0.56621,0.0427 -1.17754,0.36232c-0.75727,0.39593 -1.54734,0.78754 -2.26449,0.99638c-0.82504,0.24025 -1.53812,0.37342 -2.08333,0.4529c-0.72264,0.10534 -1.4485,0.09614 -2.08333,0.18116c-0.72382,0.09693 -1.3293,0.07588 -1.90217,0.36232c-0.34373,0.17186 -0.54841,0.7227 -0.72464,1.17754c-0.2796,0.72164 -0.64549,1.44592 -0.9058,2.35507c-0.28427,0.99287 -0.27174,1.99275 -0.27174,2.89855c0,0.99638 0.13419,2.24206 0.72464,3.26087c0.74492,1.28536 2.09792,2.55875 3.80435,3.62319c1.30651,0.81497 2.43611,1.28599 3.44203,1.81159c0.89757,0.46899 1.89184,0.83666 2.62681,1.17754c0.6258,0.29025 1.35627,0.55337 2.44565,0.81522c1.17502,0.28243 2.4323,0.55855 3.35145,1.08696c0.61332,0.35259 0.82253,0.72324 0.9058,1.17754c0.09933,0.54195 0.26469,1.28215 0.09058,2.35507c-0.22941,1.4137 -1.16809,3.17447 -2.17391,5.43478c-0.80765,1.81498 -1.41603,3.2788 -1.72101,3.80435c-0.16392,0.28247 -0.36639,0.33814 -0.9058,0.27174c-0.74134,-0.09126 -1.73829,-0.32635 -2.89855,-0.9058c-1.19648,-0.59753 -2.36145,-1.56471 -3.44203,-2.26449c-0.68003,-0.44039 -1.12685,-0.68748 -1.63043,-1.26812c-0.59348,-0.68429 -1.11659,-1.24473 -1.53986,-1.81159c-0.39079,-0.52338 -0.86715,-1.23814 -1.26812,-1.99275c-0.4186,-0.7878 -0.64844,-1.44048 -1.08696,-2.17391c-0.37476,-0.62679 -0.67327,-1.06906 -0.9058,-1.63044c-0.21923,-0.52927 -0.47048,-1.07686 -0.72464,-1.53985c-0.09747,-0.17755 -0.09058,-0.27174 -0.09058,0c0,0.54348 -0.12228,1.64025 -0.4529,3.44203c-0.38478,2.09698 -0.80799,4.16632 -0.72464,5.97826c0.05887,1.27964 0.72464,2.62681 1.17754,3.53261c0.27174,0.54348 0.58973,1.11087 0.99638,1.81159c0.32785,0.56494 0.51551,1.00288 0.63406,1.44928c0.07352,0.27684 0.12793,0.6356 0.09058,1.08696c-0.04544,0.5491 -0.27174,0.99638 -0.27174,1.44928c0,0.54348 -0.04483,0.99823 0,1.53986c0.04544,0.5491 0.34645,1.71732 1.17754,2.62681c0.64953,0.7108 1.80462,1.23083 2.98913,1.3587c1.44372,0.15585 2.89633,-0.00957 4.43841,-0.36232c1.62815,-0.37244 3.63232,-0.77222 5.43478,-1.17754c1.09311,-0.2458 1.71266,-0.40727 2.08333,-0.4529c0.53941,-0.0664 1.26812,0.09058 1.99275,0.09058c0.54348,0 1.16046,0.07838 1.3587,-0.18116c0.17387,-0.22763 0.12286,-0.83471 -0.54348,-1.90218c-0.86468,-1.38522 -2.32535,-3.1044 -3.98551,-5.07246c-1.78012,-2.11028 -3.74109,-3.8788 -5.61594,-6.06884c-1.26065,-1.47259 -2.03233,-2.92354 -2.71739,-4.25725c-0.75975,-1.47911 -2.01071,-3.2515 -2.80797,-4.80073c-0.64876,-1.26066 -1.49495,-2.75399 -2.53623,-3.98551c-0.86943,-1.02827 -1.31277,-1.56105 -1.53986,-1.99275c-0.15204,-0.28904 -0.40935,-0.50346 -0.63406,-0.81522c-0.11843,-0.16431 -0.21252,-0.33564 -0.36232,-0.54348c-0.11843,-0.16431 -0.30538,-0.52054 -0.54348,-0.9058c-0.31945,-0.51688 -0.40172,-0.9976 -0.36232,-1.63043c0.04538,-0.72886 0.31321,-1.78475 0.9058,-2.89855c0.51933,-0.97611 1.39228,-1.59834 2.08333,-2.35507c0.47706,-0.5224 0.58843,-0.89744 0.63406,-1.26812c0.02213,-0.1798 0,-0.27174 0,-0.4529c0,-0.18116 -0.09058,-0.4529 -0.09058,-0.63406c0,-0.18116 0.33938,-0.39596 0.72464,-0.63406c0.51688,-0.31945 1.43691,-0.60412 2.62681,-0.81522c1.4381,-0.25512 2.71457,-0.31699 3.80435,-0.36232c0.90501,-0.03764 1.44366,0.04514 1.99275,0.09058c0.6319,0.0523 1.53985,0.09058 2.44565,0.09058c0.72464,0 0.96479,-0.06458 1.26812,0.27174c0.35373,0.39221 0.82112,1.04704 0.9058,1.90217c0.07196,0.72672 -0.99277,1.72596 -2.35507,2.71739c-1.62615,1.18345 -2.82814,2.14879 -3.89493,2.53623c-0.86825,0.31533 -1.70394,0.25954 -1.90217,0c-0.17387,-0.22763 -0.08996,-0.46784 0.09058,-0.4529c0.5491,0.04544 1.44928,0.54348 2.71739,1.17754c1.63043,0.81522 3.35923,1.52235 4.80072,2.17391c1.36627,0.61756 2.6884,1.1727 3.71377,1.90217c0.68047,0.4841 0.99638,0.81522 1.08696,1.08696c0.09058,0.27174 0.18116,0.54348 0.18116,1.08696c0,0.4529 0.10042,1.01616 -0.09058,1.72101c-0.18042,0.66582 -0.58584,1.34578 -0.81522,2.17391c-0.22292,0.8048 -0.41161,1.5278 -0.54348,2.17391c-0.14603,0.71553 -0.18116,1.26812 -0.18116,1.90217c0,0.63406 0.01784,1.26544 0.09058,1.81159c0.12018,0.90235 0.29157,2.17124 0.4529,3.44203c0.1033,0.8137 0.09058,1.53985 0.09058,2.08333c0,0.63406 -0.05733,1.19547 -0.36232,1.72101c-0.32785,0.56495 -0.83804,0.98555 -1.08696,1.53986c-0.19983,0.44498 -0.31681,0.89907 -0.36232,1.3587c-0.0357,0.36056 -0.01867,0.82314 0.18116,1.26812c0.16595,0.36953 0.4529,0.63406 0.72464,0.9058l0.4529,0.18116l0.09058,0.09058" id="svg_12" stroke-width="2" stroke="#000" fill="none"/></g></svg>
